<?xml version="1.0" standalone="no"?>
<!DOCTYPE svg PUBLIC "-//W3C//DTD SVG 20010904//EN"
 "http://www.w3.org/TR/2001/REC-SVG-20010904/DTD/svg10.dtd">
<svg version="1.0" xmlns="http://www.w3.org/2000/svg"
 width="1968.000000pt" height="1181.000000pt" viewBox="0 0 1968.000000 1181.000000"
 preserveAspectRatio="xMidYMid meet">

<g transform="translate(0.000000,1181.000000) scale(0.100000,-0.100000)"
fill="#000000" stroke="none">
<path d="M0 5905 l0 -5905 9840 0 9840 0 0 5905 0 5905 -9840 0 -9840 0 0
-5905z m9198 2436 c-1 -4 -62 -70 -134 -145 l-132 -137 -70 3 -70 3 101 143
101 142 104 0 c57 0 102 -4 100 -9z m-7451 -258 c-3 -5 -37 -61 -77 -126 -40
-65 -72 -129 -72 -141 0 -12 16 -44 35 -70 70 -91 65 -138 -48 -441 -109 -293
-150 -421 -180 -569 -13 -65 -26 -121 -30 -124 -3 -3 -5 328 -5 736 l0 742
191 0 c104 0 188 -3 186 -7z m5983 -1643 l0 -1649 -127 86 c-71 48 -213 150
-318 228 -256 192 -762 543 -855 593 -118 64 -490 225 -660 285 -85 30 -266
89 -401 131 -276 85 -326 104 -483 183 -245 123 -400 233 -623 441 -230 214
-360 330 -468 417 -152 122 -417 312 -501 360 -108 62 -659 321 -948 446 -137
60 -254 113 -260 119 -7 7 867 10 2817 10 l2827 0 0 -1650z m4207 1547 c17
-16 27 -40 30 -71 5 -42 3 -48 -30 -81 -29 -29 -42 -35 -77 -35 -34 0 -48 6
-76 34 -28 28 -34 42 -34 76 0 35 6 48 35 77 33 33 39 35 81 30 31 -3 55 -13
71 -30z m-2847 -9 c178 -33 343 -144 446 -299 170 -257 147 -626 -55 -856
-141 -159 -329 -243 -546 -243 -286 0 -531 152 -650 401 -96 203 -85 459 30
666 46 81 166 204 247 251 151 89 335 117 528 80z m2330 -183 l0 -185 100 0
100 0 0 -60 0 -60 -100 0 -100 0 0 -440 0 -440 -70 0 -70 0 0 440 0 440 -85 0
-85 0 0 60 0 60 85 0 85 0 0 185 0 185 70 0 70 0 0 -185z m-9001 -80 c243 -24
671 -206 1011 -430 321 -213 588 -483 665 -674 17 -42 26 -88 31 -162 6 -95 4
-110 -19 -176 -48 -139 -213 -350 -407 -521 -279 -245 -526 -345 -855 -345
-227 0 -416 45 -635 153 -198 98 -391 234 -465 327 -208 264 -266 402 -251
599 19 246 213 699 421 980 70 95 177 198 233 225 47 23 129 38 177 33 17 -2
59 -6 94 -9z m13342 -92 c40 -21 61 -40 83 -76 55 -90 33 -221 -46 -280 -147
-109 -348 -14 -348 163 1 169 161 268 311 193z m-5251 7 c194 -31 364 -187
415 -381 30 -111 14 -272 -36 -372 -57 -114 -170 -216 -286 -260 -83 -31 -272
-31 -355 0 -62 23 -127 65 -182 117 l-36 33 0 -258 0 -259 -70 0 -70 0 0 680
0 680 70 0 70 0 0 -81 0 -81 44 45 c114 118 262 164 436 137z m2357 -14 c115
-31 204 -87 268 -168 38 -47 38 -48 -31 -88 l-46 -27 -49 49 c-127 127 -343
161 -509 81 -72 -35 -154 -118 -188 -190 -24 -51 -27 -70 -27 -158 0 -91 3
-106 31 -165 39 -82 106 -150 191 -192 58 -28 79 -33 163 -36 151 -6 232 23
337 121 l52 49 56 -36 56 -36 -21 -30 c-60 -85 -181 -158 -307 -186 -110 -24
-274 -16 -366 19 -215 82 -337 257 -337 482 0 269 179 474 458 525 61 11 202
4 269 -14z m1114 10 c90 -19 162 -58 231 -124 l58 -55 0 81 0 82 70 0 70 0 0
-500 0 -500 -70 0 -70 0 0 81 0 82 -53 -51 c-61 -57 -146 -103 -226 -122 -77
-18 -231 -8 -303 19 -124 48 -243 165 -294 291 -22 53 -28 86 -32 176 -7 177
32 281 152 400 130 129 290 177 467 140z m1032 -6 c60 -19 187 -99 187 -118 0
-4 -20 -27 -44 -51 l-44 -43 -45 35 c-61 47 -127 71 -172 64 -88 -14 -147 -87
-126 -157 14 -46 80 -109 153 -146 134 -68 215 -132 251 -199 30 -56 31 -181
1 -245 -30 -64 -97 -126 -164 -151 -44 -17 -71 -20 -140 -17 -100 5 -170 32
-240 95 l-44 40 32 40 c55 70 58 71 100 30 123 -119 300 -92 343 53 10 31 8
44 -9 82 -22 51 -58 79 -188 148 -164 86 -224 164 -224 293 0 39 7 83 16 105
28 67 99 128 173 148 66 18 110 17 184 -6z m-3083 -510 l0 -500 -70 0 -70 0 0
500 0 500 70 0 70 0 0 -500z m4277 -754 c172 -80 244 -271 169 -450 -24 -58
-100 -130 -167 -161 -56 -25 -70 -27 -148 -23 -104 5 -165 33 -230 103 -67 72
-85 123 -85 230 0 60 6 102 16 125 40 87 113 156 195 186 21 7 74 13 118 13
64 1 90 -4 132 -23z m1053 -1436 l0 -1410 -265 0 -265 0 0 1410 0 1410 265 0
265 0 0 -1410z m1090 0 l0 -1410 -360 0 -360 0 0 1410 0 1410 360 0 360 0 0
-1410z m-16960 1339 c0 -33 84 -182 157 -281 307 -412 818 -670 1328 -670 293
0 535 74 791 243 132 87 262 185 414 313 75 62 133 103 168 116 194 74 402
-66 402 -269 0 -36 -11 -122 -25 -191 -57 -295 -82 -578 -65 -743 48 -470 338
-891 798 -1161 78 -46 283 -136 310 -136 6 0 12 -4 12 -10 0 -7 -725 -10
-2155 -10 l-2155 0 0 1423 c0 922 4 1417 10 1407 5 -8 10 -22 10 -31z m7481 1
c211 -11 315 -28 435 -71 201 -73 354 -222 422 -411 21 -59 27 -96 30 -194 5
-148 -7 -209 -61 -317 -31 -63 -59 -101 -122 -163 l-81 -80 70 -38 c195 -103
325 -262 377 -463 28 -109 28 -297 0 -407 -73 -280 -283 -492 -557 -561 -145
-37 -271 -45 -736 -45 l-428 0 0 1380 0 1380 233 0 c127 0 316 -5 418 -10z
m-3366 -345 c602 -91 1455 -620 1646 -1020 36 -74 38 -155 9 -269 -65 -256
-316 -645 -581 -901 -158 -153 -264 -203 -444 -212 -132 -7 -332 19 -449 58
-235 78 -529 272 -688 451 -340 387 -402 832 -198 1413 84 240 171 361 310
433 120 63 216 74 395 47z m5779 -330 c31 -8 68 -21 81 -28 l23 -12 -80 -220
c-44 -121 -81 -222 -83 -224 -3 -2 -27 6 -54 18 -106 45 -197 17 -264 -81 -43
-62 -62 -113 -84 -223 -13 -67 -17 -182 -20 -692 l-4 -613 -260 0 -259 0 0
1020 0 1020 225 0 225 0 0 -116 0 -116 41 61 c118 176 318 257 513 206z m1469
-19 c136 -40 251 -104 345 -189 l42 -40 0 107 0 106 260 0 260 0 0 -1020 0
-1020 -260 0 -260 0 0 101 0 102 -32 -27 c-120 -98 -260 -172 -386 -203 -101
-25 -331 -22 -437 6 -258 69 -504 271 -629 517 -82 161 -116 314 -116 524 0
153 17 275 56 395 103 317 362 569 664 645 108 27 121 29 270 25 110 -3 151
-8 223 -29z m2217 9 c89 -24 199 -76 273 -129 62 -43 187 -167 187 -183 0 -4
-72 -80 -159 -167 l-159 -159 -69 57 c-37 31 -102 74 -143 94 -65 32 -83 37
-145 37 -84 -1 -130 -23 -159 -76 -44 -82 -6 -117 292 -268 377 -192 481 -284
554 -491 28 -78 34 -234 14 -328 -24 -116 -69 -195 -161 -288 -127 -128 -248
-183 -453 -206 -122 -13 -260 -3 -377 27 -83 22 -208 83 -282 139 -63 47 -173
161 -173 179 0 7 160 184 291 321 l28 29 65 -61 c144 -134 335 -202 457 -161
83 28 137 99 125 164 -15 77 -99 141 -363 274 -373 188 -523 370 -523 635 0
163 40 263 152 381 97 103 221 170 362 195 76 13 290 5 366 -15z m1360 -1045
l0 -1020 -260 0 -260 0 0 1020 0 1020 260 0 260 0 0 -1020z m-8600 -490 l0
-580 -640 0 c-352 0 -640 3 -640 8 0 4 23 20 51 35 144 82 363 291 624 597 87
102 174 197 193 213 49 37 103 50 178 42 78 -8 77 -8 164 148 36 64 66 117 68
117 1 0 2 -261 2 -580z"/>
<path d="M8780 7831 c-202 -64 -350 -220 -396 -417 -21 -91 -14 -236 15 -319
46 -129 155 -252 283 -316 212 -107 484 -62 653 107 219 218 218 583 -1 800
-68 67 -170 125 -260 149 -79 20 -224 19 -294 -4z"/>
<path d="M15581 7580 c-45 -28 -67 -56 -81 -103 -31 -103 55 -211 166 -209
123 1 200 132 144 242 -28 55 -72 83 -139 88 -44 2 -63 -1 -90 -18z m143 -51
c32 -25 34 -62 3 -93 l-22 -22 27 -40 c34 -48 35 -64 4 -64 -17 0 -31 13 -54
50 -21 34 -38 50 -52 50 -17 0 -20 -6 -20 -50 0 -47 -2 -50 -25 -50 l-25 0 0
120 0 120 69 0 c54 0 74 -4 95 -21z"/>
<path d="M15610 7480 c0 -27 3 -30 34 -30 41 0 65 23 46 45 -7 8 -28 15 -46
15 -31 0 -34 -3 -34 -30z"/>
<path d="M10293 7486 c-159 -52 -264 -198 -267 -371 -2 -140 52 -250 161 -326
77 -53 147 -72 247 -67 147 8 258 84 327 223 32 65 34 77 34 165 0 91 -2 100
-38 172 -43 88 -102 147 -187 186 -67 32 -208 41 -277 18z"/>
<path d="M13773 7486 c-104 -34 -194 -114 -241 -214 -24 -50 -27 -69 -27 -162
0 -95 3 -111 28 -162 41 -84 107 -152 185 -190 62 -31 74 -33 167 -33 92 0
106 3 167 32 122 58 198 160 216 291 18 132 -20 251 -109 341 -76 76 -143 104
-254 108 -57 2 -105 -2 -132 -11z"/>
<path d="M17985 6089 c-43 -12 -102 -64 -125 -110 -26 -50 -26 -139 -1 -195
10 -22 35 -54 56 -71 131 -108 335 -28 352 138 17 168 -122 285 -282 238z
m114 -134 c36 -18 55 -62 43 -96 -29 -74 -124 -88 -167 -23 -23 36 -19 72 14
105 33 32 67 37 110 14z"/>
<path d="M17720 5515 l0 -65 79 0 79 0 -19 -37 c-41 -80 -11 -180 69 -235 62
-43 157 -51 218 -20 47 24 89 67 103 105 15 40 14 112 -3 152 -13 31 -13 35 0
35 11 0 14 15 14 65 l0 65 -270 0 -270 0 0 -65z m395 -90 c18 -17 25 -35 25
-63 0 -87 -99 -127 -154 -61 -29 35 -33 67 -11 109 17 33 27 38 78 39 28 1 45
-6 62 -24z"/>
<path d="M17720 4985 l0 -65 50 0 50 0 0 65 0 65 -50 0 -50 0 0 -65z"/>
<path d="M17850 4985 l0 -65 205 0 205 0 0 65 0 65 -205 0 -205 0 0 -65z"/>
<path d="M17850 4740 c0 -47 3 -60 15 -60 12 0 12 -6 -5 -37 -71 -133 65 -304
221 -279 48 8 107 36 130 62 52 59 65 162 29 222 -20 32 -20 32 0 32 18 0 20
7 20 60 l0 60 -205 0 -205 0 0 -60z m261 -89 c60 -61 23 -156 -61 -156 -34 0
-47 6 -66 28 -77 89 44 211 127 128z"/>
<path d="M17950 4141 l0 -161 60 0 60 0 0 72 c0 70 0 71 20 53 51 -46 46 -126
-10 -180 -23 -22 -41 -29 -82 -32 -63 -5 -94 9 -126 57 -29 42 -26 102 7 148
17 24 21 45 21 106 0 57 -3 76 -13 76 -25 0 -96 -54 -125 -95 -40 -55 -52 -96
-52 -175 0 -109 49 -187 154 -243 33 -17 58 -22 126 -22 98 0 141 18 201 82
52 54 71 98 77 174 12 168 -82 272 -265 295 l-53 7 0 -162z"/>
<path d="M8750 5476 l0 -286 103 0 c174 0 283 42 344 133 104 156 35 358 -142
413 -28 9 -105 18 -177 21 l-128 6 0 -287z"/>
<path d="M8750 4366 l0 -346 128 0 c153 0 268 13 359 41 93 29 163 97 188 183
58 200 -66 384 -297 442 -35 8 -133 18 -220 21 l-158 6 0 -347z"/>
<path d="M12450 5101 c-127 -41 -216 -107 -289 -216 -66 -98 -91 -181 -98
-315 -6 -130 12 -225 63 -329 70 -141 221 -260 371 -291 79 -17 223 -7 298 19
169 60 302 211 350 396 21 80 21 261 0 340 -27 106 -72 184 -149 260 -113 111
-226 155 -396 154 -62 0 -114 -6 -150 -18z"/>
</g>
</svg>
